<?xml version="1.0" encoding="UTF-8" standalone="no"?>
<svg id="Capa_1" enable-background="new 0 0 512 512" height="512" viewBox="0 0 512 512" width="512" xmlns="http://www.w3.org/2000/svg"><path d="m121 30v437h267.15c12.48 0 24.497-5.372 32.85-15h30v-422z" fill="#dfe9ee"/><path d="m451 30v422h-30c-8.342 9.615-20.355 15-32.85 15h-87.15v-437z" fill="#c6d0da"/><g fill="#ff8859"><path d="m226 158.213-40.606-40.606 21.212-21.214 19.394 19.394 49.394-49.394 21.212 21.214z"/><path d="m226 278.213-40.606-40.606 21.212-21.214 19.394 19.394 49.394-49.394 21.212 21.214z"/><path d="m226 398.213-40.606-40.606 21.212-21.214 19.394 19.394 49.394-49.394 21.212 21.214z"/></g><path d="m301 122h90v30h-90z" fill="#465a61"/><path d="m301 242h90v30h-90z" fill="#465a61"/><path d="m301 362h90v30h-90z" fill="#465a61"/><path d="m151 437h-30c0-8.271-6.729-15-15-15s-15 6.729-15 15h-30v-392c0-24.813 20.187-45 45-45s45 20.187 45 45z" fill="#f5faff"/><path d="m421 452v60h-360v-75c0-24.863 20.159-45 45-45 24.85 0 45 20.15 45 45v15z" fill="#80dbff"/><path d="m301 452h120v60h-120z" fill="#4ab8f7"/></svg>