<?xml version="1.0" encoding="UTF-8" standalone="no"?>
<svg
   xmlns:sketch="http://www.bohemiancoding.com/sketch/ns"
   xmlns:dc="http://purl.org/dc/elements/1.1/"
   xmlns:cc="http://creativecommons.org/ns#"
   xmlns:rdf="http://www.w3.org/1999/02/22-rdf-syntax-ns#"
   xmlns:svg="http://www.w3.org/2000/svg"
   xmlns="http://www.w3.org/2000/svg"
   xmlns:sodipodi="http://sodipodi.sourceforge.net/DTD/sodipodi-0.dtd"
   xmlns:inkscape="http://www.inkscape.org/namespaces/inkscape"
   width="24px"
   height="24px"
   viewBox="0 0 24 24"
   version="1.1"
   id="svg3739"
   sodipodi:docname="globe.svg"
   inkscape:version="0.92.3 (2405546, 2018-03-11)">
  <metadata
     id="metadata3743">
    <rdf:RDF>
      <cc:Work
         rdf:about="">
        <dc:format>image/svg+xml</dc:format>
        <dc:type
           rdf:resource="http://purl.org/dc/dcmitype/StillImage" />
      </cc:Work>
    </rdf:RDF>
  </metadata>
  <sodipodi:namedview
     pagecolor="#ffffff"
     bordercolor="#666666"
     borderopacity="1"
     objecttolerance="10"
     gridtolerance="10"
     guidetolerance="10"
     inkscape:pageopacity="0"
     inkscape:pageshadow="2"
     inkscape:window-width="1600"
     inkscape:window-height="848"
     id="namedview3741"
     showgrid="false"
     inkscape:zoom="28.291667"
     inkscape:cx="6.2562592"
     inkscape:cy="14.141767"
     inkscape:window-x="-8"
     inkscape:window-y="-8"
     inkscape:window-maximized="1"
     inkscape:current-layer="svg3739" />
  <!-- Generator: Sketch 3.5.1 (25234) - http://www.bohemiancoding.com/sketch -->
  <title
     id="title3729">Shape</title>
  <desc
     id="desc3731">Created with Sketch.</desc>
  <defs
     id="defs3733" />
  <g
     id="Page-1"
     sketch:type="MSPage"
     stroke-width="1"
     stroke="none"
     fill-rule="evenodd"
     fill="none"
     style="fill:#989898;fill-opacity:1">
    <g
       id="MVP---05feb16----MB2-Copy-10"
       sketch:type="MSArtboardGroup"
       transform="translate(-320.000000, -14.000000)"
       fill="#FFFFFF"
       style="fill:#989898;fill-opacity:1">
      <g
         id="header-copy"
         sketch:type="MSLayerGroup"
         transform="translate(0.000000, -5.000000)"
         style="fill:#989898;fill-opacity:1">
        <path
           d="M332,19 C325.386667,19 320,24.3866667 320,31 C320,37.6133333 325.386667,43 332,43 C338.613333,43 344,37.6133333 344,31 C344,24.3866667 338.613333,19 332,19 L332,19 Z M333.68,20.84 C333.52,21.32 332.693333,21 332.346667,21 C332.613333,20.8933333 333.013333,20.76 333.253333,20.5733333 L333.306667,20.52 C333.466667,20.5466667 333.6,20.5733333 333.76,20.6 C333.626667,20.6533333 333.493333,20.7066667 333.36,20.7866667 C333.466667,20.8133333 333.573333,20.8133333 333.68,20.84 L333.68,20.84 Z M329.493333,21.0533333 C329.68,21.24 329.866667,20.9466667 330.053333,20.8666667 C330.453333,20.6533333 331.013333,20.6533333 331.466667,20.5466667 C331.386667,20.76 330.746667,20.68 330.506667,20.76 C330.213333,20.8666667 330.346667,20.9466667 330.16,21.2666667 C330.24,21.2666667 330.346667,21.32 330.426667,21.2933333 L330.426667,21.3466667 C330.24,21.32 330.053333,21.24 330,21.48 C329.76,21.1066667 329.573333,21.1333333 329.306667,21.48 C329.573333,21.64 329.84,21.8 329.626667,22.0666667 C329.36,22.36 329.226667,21.9866667 329.466667,21.8266667 C329.226667,21.72 329.04,21.5333333 328.853333,21.7733333 C328.933333,21.7733333 329.013333,21.8 329.093333,21.8 C329.04,21.8533333 329.013333,22.0666667 328.96,22.0933333 C328.853333,22.1466667 328.48,22.0133333 328.373333,22.0133333 C328.08,21.9866667 327.813333,21.9866667 327.52,22.0133333 C327.573333,22.36 327.173333,22.04 327.04,21.9333333 C327.306667,21.6666667 327.6,21.7733333 327.92,21.8 C328.16,21.8266667 328.533333,21.8266667 328.56,21.5066667 C328.293333,21.4533333 328.16,21.4533333 328.026667,21.2666667 C328.026667,21.24 328,21.2133333 328,21.2133333 C328.48,21.0266667 328.986667,20.8666667 329.493333,20.7333333 C329.413333,20.8666667 329.386667,20.9733333 329.493333,21.0533333 L329.493333,21.0533333 Z M321.44,31 C321.44,28.4933333 322.32,26.2 323.786667,24.3866667 C323.973333,24.52 324.16,24.68 324.24,24.7333333 C324.426667,24.8933333 324.506667,25.08 324.613333,25.2666667 C324.613333,25.2666667 324.72,25.4266667 324.746667,25.5066667 C324.88,25.64 324.96,25.7733333 324.986667,25.9333333 C325.013333,26.12 324.933333,26.3066667 324.933333,26.52 C324.88,27.16 324.96,27.7466667 325.466667,28.2 C325.6,28.3333333 325.786667,28.3866667 325.92,28.52 C326.053333,28.6533333 326.053333,28.76 326.133333,28.8933333 C326.346667,29.2666667 326.666667,29.64 326.933333,29.9866667 C327.173333,30.3066667 327.253333,30.2266667 327.04,29.9066667 C326.88,29.6933333 326.693333,29.48 326.56,29.24 C326.56,29.2133333 326.426667,28.8933333 326.453333,28.92 C326.8,29 326.88,29.24 327.12,29.5333333 C327.333333,29.8266667 327.546667,29.9866667 327.68,30.3066667 C327.84,30.7066667 328.08,30.8933333 328.453333,31.08 C328.64,31.16 328.96,31.4 329.173333,31.4266667 C329.413333,31.4533333 329.546667,31.2933333 329.76,31.4 C329.92,31.48 330.026667,31.6933333 330.213333,31.7733333 C330.4,31.8266667 330.506667,31.7466667 330.693333,31.88 C330.906667,32.0133333 330.96,32.2533333 331.146667,32.3866667 C331.28,32.4933333 331.466667,32.6266667 331.653333,32.6533333 C331.786667,32.68 331.92,32.5733333 332.026667,32.6266667 C332.24,32.7066667 332.293333,32.9733333 332.24,33.1866667 C332.16,33.4266667 331.946667,33.5866667 331.84,33.8266667 C331.76,34.04 331.813333,34.2266667 331.786667,34.44 C331.76,34.6533333 331.573333,34.44 331.76,34.8133333 C331.84,34.9733333 331.946667,35.1333333 332.053333,35.2933333 C332.266667,35.6133333 332.4,35.88 332.666667,36.12 C332.853333,36.3066667 333.28,36.4933333 333.36,36.76 C333.44,37 333.386667,37.5066667 333.333333,37.7466667 C333.253333,38.2533333 333.253333,38.8666667 333.12,39.3466667 C332.986667,39.8 332.826667,39.96 332.933333,40.44 C332.986667,40.6533333 333.013333,40.5466667 332.933333,40.84 C332.906667,40.92 332.933333,40.9466667 332.906667,41.0266667 C332.853333,41.1866667 332.693333,41.2933333 332.613333,41.48 C332.826667,41.48 332.826667,41.56 332.8,41.64 C332.506667,41.6666667 332.24,41.6933333 331.946667,41.6933333 C326.186667,41.56 321.44,36.8133333 321.44,31 L321.44,31 Z M334,41.3733333 C333.946667,41.32 333.893333,41.24 333.893333,41.2133333 C333.893333,41.16 334.106667,40.8666667 334.133333,40.8133333 C334.186667,40.7066667 334.213333,40.4666667 334.293333,40.3866667 C334.4,40.2533333 334.666667,40.3066667 334.613333,40.0133333 C335.173333,40.0133333 335.413333,39.9333333 335.493333,39.3466667 C335.386667,39.2933333 335.413333,39.32 335.386667,39.24 C335.413333,39.3466667 335.813333,39.1866667 335.84,39.2666667 C335.866667,39.32 336.373333,38.6266667 336.426667,38.5733333 C336.56,38.4133333 336.693333,38.3066667 336.773333,38.12 C336.8,38.04 336.853333,37.8266667 336.933333,37.72 C336.933333,37.7466667 336.933333,37.7466667 336.906667,37.7733333 C337.093333,37.48 337.306667,37.5333333 337.573333,37.4 C337.84,37.2933333 337.653333,37.32 337.84,37.1333333 C338.08,36.92 338.106667,37.0533333 338.186667,36.68 C338.24,36.4133333 338.16,36.1733333 338.266667,35.96 C338.373333,35.6666667 338.613333,35.56 338.8,35.32 C338.933333,35.1333333 339.066667,34.8133333 338.88,34.6266667 C338.746667,34.4666667 338.293333,34.3333333 338.106667,34.28 C337.866667,34.2266667 337.6,34.2266667 337.386667,34.12 C337.12,34.0133333 336.933333,33.7466667 336.8,34.1733333 C336.746667,34.1466667 336.586667,34.04 336.586667,33.9866667 C336.586667,34.0933333 336.826667,33.9066667 336.88,33.8533333 C336.773333,33.8533333 336.4,33.9333333 336.346667,33.9066667 C336.373333,33.8 336.56,33.56 336.56,33.5333333 C336.586667,33.2666667 336.213333,32.9733333 336,32.92 C335.733333,32.84 335.573333,32.8666667 335.333333,32.7066667 C335.04,32.4933333 334.773333,32.2533333 334.4,32.2266667 C334.32,32.2266667 334.24,32.2533333 334.16,32.2533333 C333.973333,32.2266667 333.893333,32.0933333 333.733333,32.0666667 C333.52,32.0133333 333.44,32.2 333.333333,32.2 C333.146667,32.2 333.12,32.0133333 332.853333,32.1733333 C332.453333,32.4133333 332.666667,32.5466667 332.24,32.44 C332,32.3866667 331.733333,32.52 331.52,32.36 C331.306667,32.2266667 331.28,31.8266667 331.466667,31.6666667 C331.36,31.7466667 331.36,31.48 331.306667,31.4266667 C331.2,31.3466667 331.013333,31.4266667 330.88,31.4 C330.693333,31.3466667 330.586667,31.3466667 330.64,31.16 C330.693333,30.9733333 331.2,30.4666667 330.666667,30.4666667 C330.373333,30.4666667 330.293333,30.8933333 330,30.9466667 C329.68,31 329.386667,30.8933333 329.2,30.6 C328.853333,29.9866667 329.413333,29.24 330,29.1866667 C330.453333,29.1333333 331.12,28.8133333 331.466667,29.32 C331.573333,29.4533333 331.813333,30.04 331.92,29.6666667 C331.946667,29.56 331.813333,29.08 331.786667,28.8666667 C331.866667,28.7333333 332.026667,28.6266667 332.133333,28.52 C332.106667,28.52 332.106667,28.5466667 332.08,28.5733333 C332.186667,28.4666667 332.506667,28.3066667 332.56,28.1466667 C332.586667,28.0666667 332.453333,27.9333333 332.533333,27.8266667 C332.586667,27.72 332.72,27.7733333 332.773333,27.72 C332.853333,27.64 332.853333,27.48 332.933333,27.3733333 C333.013333,27.2666667 333.173333,27.2666667 333.253333,27.1866667 C333.44,27.0266667 333.493333,26.8133333 333.706667,26.7333333 C333.92,26.6 334.133333,26.36 334.4,26.4666667 C334.293333,26.5733333 334.053333,26.6533333 334,26.7333333 C333.946667,26.8133333 334.346667,26.76 334.4,26.7333333 C334.613333,26.6533333 334.8,26.4666667 335.013333,26.36 C335.333333,26.1466667 335.733333,26.12 336.133333,26.2 C336.266667,26.2266667 335.92,25.72 335.866667,25.6933333 C335.733333,25.5333333 335.706667,25.4 335.466667,25.5866667 C335.413333,25.64 335.333333,25.8533333 335.28,25.9333333 C335.146667,26.2 335.173333,26.1466667 334.853333,26.3066667 C334.88,26.3066667 334.88,26.28 334.906667,26.28 C334.693333,26.3333333 334.453333,26.4133333 334.373333,26.1466667 C334.346667,26.04 334.48,25.9066667 334.4,25.8266667 C334.24,25.6133333 333.706667,26.0666667 333.52,26.12 C333.626667,25.3466667 334.533333,25.7466667 335.013333,25.6133333 C335.146667,25.56 335.653333,25.3733333 335.68,25.2666667 C335.733333,25.08 335.28,24.7866667 335.2,24.7066667 C334.986667,24.52 334.88,24.4133333 334.746667,24.1466667 C334.613333,23.8533333 334.533333,23.5333333 334.213333,23.7733333 C334.106667,23.8533333 334.186667,24.04 333.973333,24.0666667 C333.84,24.0933333 333.706667,23.9333333 333.626667,23.8533333 C333.52,23.7466667 333.386667,23.4533333 333.2,23.4266667 C333.013333,23.4 332.533333,23.16 332.32,23.32 C332.133333,23.4533333 332.346667,23.9333333 332.4,24.0933333 C332.506667,24.4666667 332.586667,24.4666667 332.266667,24.7066667 C332.106667,24.8133333 332.026667,24.7066667 332.08,25 C332.106667,25.16 332.293333,25.1866667 332.16,25.32 C332.08,25.4 331.893333,25.4 331.813333,25.3466667 C331.546667,25.2133333 331.786667,25.0533333 331.653333,24.8666667 C331.546667,24.7333333 331.013333,24.6266667 330.853333,24.5466667 C330.453333,24.36 329.386667,24.1733333 329.733333,23.56 C329.813333,23.4 330.16,23.1333333 330.293333,23.0533333 C330.453333,22.9466667 330.64,22.92 330.773333,22.7866667 C330.853333,22.7066667 330.853333,22.4933333 330.906667,22.44 C330.986667,22.36 331.253333,22.3866667 331.413333,22.4133333 C332.026667,22.28 331.466667,21.4 332.266667,21.56 C332.48,21.6133333 332.72,21.8266667 332.906667,21.96 C333.12,22.0933333 333.173333,22.0933333 333.12,22.3066667 C333.093333,22.36 332.88,22.5733333 332.826667,22.6266667 C332.72,22.7066667 332.533333,22.76 332.426667,22.8133333 C332.853333,22.8133333 333.04,22.7866667 333.386667,23.0266667 C333.68,23.2133333 333.866667,23.3466667 334.24,23.3466667 C334.213333,23.16 333.893333,23.24 333.92,23.0533333 C333.92,22.8933333 334.106667,23.1066667 334.133333,23.1066667 C334.24,23.1066667 334.506667,23.24 334.453333,22.9466667 C334.4,22.7066667 333.866667,22.8133333 334.026667,22.4133333 C334.266667,22.3866667 334.213333,22.6533333 334.373333,22.7066667 C334.533333,22.76 334.773333,22.5466667 334.8,22.4133333 C334.56,22.28 333.813333,22.0933333 333.893333,21.7466667 C334.373333,22.0666667 334.88,22.3866667 335.36,22.68 C334.96,23.0266667 335.653333,22.84 335.68,22.84 C335.786667,22.8666667 336.106667,23.1333333 335.893333,23.1866667 C335.68,23.24 335.573333,22.9466667 335.386667,23.16 C335.546667,23.2133333 336.16,23.24 336,23.56 C335.946667,23.6933333 335.546667,23.6666667 335.44,23.9333333 C335.52,23.9066667 335.6,23.9333333 335.706667,23.9333333 C335.52,24.2266667 335.786667,24.4133333 335.946667,24.6533333 C336.106667,24.92 336.346667,25.32 336.693333,25.4 C337.413333,25.5866667 337.333333,24.4133333 337.866667,24.2266667 C338.026667,24.1733333 338.186667,24.2 338.346667,24.1733333 C338.506667,24.12 338.613333,24.0133333 338.746667,23.9066667 C339.04,23.6933333 339.306667,23.6666667 339.626667,23.6666667 C340.693333,24.7333333 341.52,26.04 342.053333,27.5066667 C342,27.5333333 341.946667,27.56 341.92,27.6133333 C341.866667,27.6666667 341.866667,27.72 341.84,27.8 C341.813333,27.8266667 341.786667,27.8533333 341.76,27.88 C341.706667,27.9866667 341.76,28.12 341.76,28.2266667 C341.76,28.36 341.706667,28.4666667 341.786667,28.5733333 C341.84,28.68 341.946667,28.7866667 342.053333,28.8666667 C342.133333,28.9466667 342.24,29.0266667 342.346667,29.0266667 C342.373333,29.0266667 342.453333,29.0266667 342.506667,29 C342.533333,29.16 342.56,29.32 342.586667,29.48 C342.48,29.5866667 342.346667,29.72 342.293333,29.8266667 C342.213333,29.9866667 342.213333,30.0933333 342.053333,30.2266667 C341.92,30.36 341.76,30.3866667 341.626667,30.5466667 C341.52,30.7066667 341.52,30.8133333 341.44,30.9733333 C341.386667,31.0533333 341.28,31.08 341.253333,31.1866667 C341.146667,31.4 341.28,31.7466667 341.253333,31.9866667 C341.253333,32.28 341.146667,32.52 341.306667,32.7866667 C341.466667,33.0266667 341.706667,33.2666667 341.92,33.4266667 C342.053333,33.56 342.213333,33.6666667 342.373333,33.72 C341.2,37.56 338,40.6 334,41.3733333 L334,41.3733333 Z"
           id="Shape"
           sketch:type="MSShapeGroup"
           style="fill:#989898;fill-opacity:1" />
      </g>
    </g>
  </g>
</svg>
