<?xml version="1.0" encoding="UTF-8" standalone="no"?>
<svg height="512pt" viewBox="-53 0 512 512" width="512pt" xmlns="http://www.w3.org/2000/svg">
    <path d="m277.585938 113v-113h-262.585938c-8.285156 0-15 6.714844-15 15v482c0 8.285156 6.714844 15 15 15h375.585938c8.285156 0 15-6.714844 15-15v-369h-113c-8.285157 0-15-6.714844-15-15zm-16.390626 272.886719c0 26.953125-21.929687 48.882812-48.882812 48.882812h-19.035156c-26.957032 0-48.882813-21.929687-48.882813-48.882812v-12.699219c0-8.285156 6.714844-15 15-15 8.28125 0 15 6.714844 15 15v12.699219c0 10.410156 8.46875 18.882812 18.882813 18.882812h19.035156c10.410156 0 18.882812-8.472656 18.882812-18.882812v-70.625c0-10.410157-8.472656-18.882813-18.882812-18.882813-8.285156 0-15-6.714844-15-15 0-8.28125 6.714844-15 15-15 26.953125 0 48.882812 21.929688 48.882812 48.882813zm0-149.074219c0 8.285156-6.71875 15-15 15-8.285156 0-15-6.714844-15-15v-12.699219c0-10.410156-8.472656-18.882812-18.882812-18.882812h-19.035156c-10.414063 0-18.882813 8.472656-18.882813 18.882812v70.625c0 10.410157 8.46875 18.882813 18.882813 18.882813 8.28125 0 15 6.714844 15 15 0 8.28125-6.71875 15-15 15-26.957032 0-48.882813-21.929688-48.882813-48.882813v-70.625c0-26.953125 21.925781-48.882812 48.882813-48.882812h19.035156c26.953125 0 48.882812 21.929687 48.882812 48.882812zm0 0"/>
    <path d="m396.800781 98-89.214843-89.214844v89.214844zm0 0"/>
</svg>