<?xml version="1.0" encoding="UTF-8" standalone="no"?>
<svg width="87px" height="21px" viewBox="0 0 87 21" version="1.1" xmlns="http://www.w3.org/2000/svg" xmlns:xlink="http://www.w3.org/1999/xlink" xmlns:sketch="http://www.bohemiancoding.com/sketch/ns">
    <!-- Generator: Sketch 3.5.2 (25235) - http://www.bohemiancoding.com/sketch -->
    <title>Page 1</title>
    <desc>Created with Sketch.</desc>
    <defs>
        <path id="path-1" d="M0,0.0633514644 L87,0.0633514644 L87,21 L0,21 L0,0.0633514644 Z"></path>
    </defs>
    <g id="Page-1" stroke="none" stroke-width="1" fill="none" fill-rule="evenodd" sketch:type="MSPage">
        <g id="0.5---basicDetails" sketch:type="MSArtboardGroup" transform="translate(-16.000000, -18.000000)">
            <g id="header" sketch:type="MSLayerGroup" transform="translate(-2.000000, 0.000000)">
                <g id="Group-9" transform="translate(18.000000, 16.000000)">
                    <g id="Page-1" transform="translate(0.000000, 2.000000)">
                        <g id="Group-3">
                            <mask id="mask-2" sketch:name="Clip 2" fill="white">
                                <use xlink:href="#path-1"></use>
                            </mask>
                            <g id="Clip-2"></g>
                            <path d="M87,0.0633426778 L14.40894,0.0633426778 C12.065073,0.0633426778 10.871955,0.0904054393 9.562866,0.250409623 C6.627834,0.595371967 4.032972,1.8768113 2.44296,3.76663556 C0.846771,5.68782803 0,8.02111255 0,10.5219577 C0,13.3537946 1.109337,16.0161377 3.128868,18.0154431 C4.635012,19.5036314 6.574677,20.3994264 9.047478,20.7768992 C10.704306,21.0286356 12.358872,21.007987 13.819428,20.9906774 L14.837676,20.9832088 L81.250605,20.9832088 L86.99739,0.0633426778 L87,0.0633426778 Z" id="Fill-1" fill="#008E3A" sketch:type="MSShapeGroup" mask="url(#mask-2)"></path>
                        </g>
                        <path d="M80.8887807,20.5120619 L79.6894596,20.5120619 L14.8376847,20.5120619 C10.8047127,20.5120619 6.6109647,20.7855013 3.4546917,17.6731958 C1.6021137,15.8450536 0.4618917,13.314246 0.4618917,10.521949 C0.4618917,8.07443849 1.3362417,5.79264351 2.7825297,4.06633808 C4.4327457,2.09216234 7.0386567,1.023359 9.6230787,0.713191632 C10.9479147,0.5502 12.1892307,0.530605858 14.4089487,0.530605858 L86.3837877,0.530605858 L80.8887807,20.5120619 Z" id="Fill-4" fill="#FEFEFE" sketch:type="MSShapeGroup"></path>
                        <path d="M64.7132535,7.80968033 C64.3892655,7.80968033 64.1661975,7.95307782 63.9359085,8.18152971 C63.1593465,8.95009456 62.2626375,11.296559 61.8276375,13.1106427 C61.6199685,13.9854377 61.5296625,14.4768728 61.5296625,14.9940527 C61.5296625,15.4811824 61.7457705,15.7501406 62.1231765,15.7501406 C62.4138435,15.7501406 62.7332205,15.5434795 62.9607255,15.3050987 C63.3629265,14.8693707 63.6406305,14.2616008 63.9589635,13.4942661 C64.7196045,11.67781 65.2595265,9.32378912 65.2595265,8.55232469 C65.2595265,8.17845439 65.1499935,7.80968033 64.7132535,7.80968033 L64.7132535,7.80968033 Z M67.4638455,12.8258686 C66.5062365,15.520195 64.9368435,17.6935632 61.8466035,17.6935632 C59.6980515,17.6935632 58.4881425,16.6554251 58.4881425,14.429513 C58.4881425,13.4408435 58.7304375,12.3958519 59.0337195,11.4670192 C59.9111145,8.87567197 61.8044955,5.85386862 64.8345315,5.85386862 C67.0983585,5.85386862 68.1939495,7.00544184 68.1939495,9.27115732 C68.1939495,10.3606971 67.8283755,11.792651 67.4638455,12.8258686 L67.4638455,12.8258686 Z M32.5440465,14.4884711 C32.5440465,15.1945632 32.8683825,15.7467138 33.6218025,15.7467138 C33.9075105,15.7467138 34.1712075,15.7467138 34.4570895,15.6845046 L35.4557625,12.0089774 C34.0714185,12.1727598 32.5440465,12.8462536 32.5440465,14.4884711 L32.5440465,14.4884711 Z M38.9156655,10.2571908 L37.0240245,17.1860485 C35.6990145,17.5286385 34.3351155,17.735651 32.9508585,17.735651 C31.1998965,17.735651 29.4683355,16.8792201 29.4683355,14.8767515 C29.4683355,11.4057766 33.1740135,10.4202703 35.9440935,10.1520151 C36.0851205,9.70161339 36.2292795,9.22748787 36.2292795,8.75731632 C36.2292795,7.97346276 35.5558125,7.78674728 34.9041825,7.78674728 C33.9900735,7.78674728 32.7464085,8.03426611 31.8704925,8.3246636 L32.3607375,6.43044603 C33.2983365,6.02257155 34.7241795,5.83348368 35.7401655,5.83348368 C37.4093475,5.83348368 39.2008515,6.37104854 39.2008515,8.38485188 C39.2008515,9.02179331 39.0810525,9.64037071 38.9156655,10.2571908 L38.9156655,10.2571908 Z M61.0301085,6.15850042 C60.5710095,5.91019079 59.7857475,5.85202343 59.1564765,5.85202343 C57.8734875,5.85202343 56.3645595,6.08179331 55.2052845,6.67796485 L52.2519825,17.4283833 L55.2249465,17.4283833 L57.7626495,8.07450879 C58.2043485,7.91098996 58.6481355,7.84878075 59.1133245,7.84878075 C59.4919485,7.84878075 59.7064905,7.87048368 59.8881465,7.87900669 L61.0301085,6.15850042 Z M30.8217075,5.63675146 C30.8217075,3.60019079 29.4571125,2.87977657 27.6233265,2.87977657 C25.7715315,2.87977657 24.2020515,3.74437908 23.0220705,5.16095649 C21.3736815,7.15604435 20.0094345,11.3723874 20.0094345,13.9445799 C20.0094345,16.6406636 21.1081575,17.9354586 23.8141185,17.9354586 C27.5839155,17.9354586 28.4980245,14.8419565 29.3742015,11.7788561 L26.1167475,12.4025297 C25.8519195,13.2597515 25.1999415,15.7513707 24.0587625,15.7513707 C23.3673735,15.7513707 23.2262595,15.0984377 23.2262595,14.5162368 C23.2262595,12.79081 24.2445075,9.50400251 24.8528985,7.8577431 C25.1801925,6.991559 26.0136525,4.99928285 27.1571805,4.99928285 C27.4164405,4.99928285 27.5990535,5.14241674 27.6801375,5.27685188 C27.7827975,5.43993138 27.8100285,5.61979331 27.8100285,5.84938745 C27.8100285,5.940241 27.7861905,6.20946276 27.7482585,6.40777657 C27.6709155,6.81942929 27.0721815,8.98682259 27.0721815,8.98682259 L30.2110545,8.43019079 C30.4539585,7.58843347 30.8217075,6.51901506 30.8217075,5.63675146 L30.8217075,5.63675146 Z M47.1802305,6.16561757 C46.4226345,5.93795649 45.5932635,5.83348368 44.8169625,5.83348368 C42.5201625,5.83348368 40.0827705,7.08961757 40.0603245,9.70161339 C40.0396185,12.0680234 42.8832135,12.8665506 42.8716425,14.2049272 C42.8630295,15.2971029 41.9013315,15.7031322 40.9637325,15.7031322 C40.2128355,15.7031322 39.4109565,15.6016469 38.6798085,15.3997305 L38.1625935,17.2062577 C39.1179405,17.5116803 40.2779985,17.6525297 41.2727565,17.6525297 C43.5930465,17.6525297 45.7457745,16.3172285 45.7676985,13.7773707 C45.7907535,11.2627305 43.1052375,10.7067138 43.1163735,9.27115732 C43.1264655,8.16088117 44.2339755,7.83182259 45.1424295,7.83182259 C45.6364155,7.83182259 46.1590245,7.87048368 46.6503135,7.97346276 L47.1802305,6.16561757 Z M54.2000865,6.22606946 L52.0202145,6.22606946 L52.8767295,3.05955063 L49.7401185,3.5726887 L49.0435095,6.22606946 L47.9649705,6.22606946 L47.4781185,7.97346276 L48.5596155,7.97346276 C48.5596155,7.97346276 46.8919125,14.1213665 46.7624565,14.6327473 C46.6819815,14.9670778 46.6026375,15.3789941 46.6026375,15.7031322 C46.6026375,16.5329397 47.1356865,17.1249816 47.8224645,17.3054586 C48.0832035,17.3881406 48.5395185,17.4283833 49.0435095,17.4283833 L51.2076345,17.4283833 L51.6958785,15.6641197 L50.5914135,15.6641197 C50.1046485,15.6641197 49.6538145,15.6220318 49.6538145,15.0506385 C49.6538145,14.904605 49.6968795,14.7330025 49.7401185,14.5290653 C49.8024975,14.2848854 51.5289255,7.97346276 51.5289255,7.97346276 L53.7047085,7.97346276 L54.2000865,6.22606946 Z M71.2986315,14.1818184 C71.2369485,14.4684377 71.1949275,14.7130569 71.1949275,14.9260444 C71.1949275,15.5404921 71.6712525,15.6641197 72.1801155,15.6641197 L73.1995815,15.6641197 L72.7889415,17.4283833 L70.7546205,17.4283833 C70.1238705,17.4283833 69.6109185,17.3679314 69.3085065,17.2439523 C68.6175525,16.960672 68.1622815,16.3357682 68.1622815,15.4185339 C68.1622815,15.0112745 68.2431045,14.5715046 68.3449815,14.1421908 C68.4687825,13.6113916 71.2138935,3.65572218 71.2138935,3.65572218 L74.3369325,3.05955063 C74.3369325,3.05955063 71.4050325,13.733877 71.2986315,14.1818184 L71.2986315,14.1818184 Z" id="Fill-6" fill="#ED1B2D" sketch:type="MSShapeGroup"></path>
                        <path d="M6.2696724,7.59148243 L18.1016724,7.59148243 C16.9286514,4.47153264 13.9417674,2.25730669 10.4406264,2.25730669 C9.3627834,2.25730669 8.2928574,2.4973569 7.5831984,2.86164979 L6.2696724,7.59148243 Z" id="Fill-8" fill="#0E7851" sketch:type="MSShapeGroup"></path>
                        <path d="M5.7187884,13.0013636 C5.1929604,13.0013636 4.7439534,12.9434598 4.4357124,12.7951418 C3.9441624,12.5743343 3.5676264,12.1146188 3.5676264,11.3753134 C3.5676264,10.7510247 3.7462374,10.1802464 3.9541674,9.45412092 L5.5264314,3.90959372 C3.5378724,5.41737615 2.2518384,7.8200749 2.2518384,10.5234515 C2.2518384,15.0968824 5.9188884,18.7919159 10.4406264,18.7919159 C14.1087204,18.7919159 17.2134894,16.3607485 18.2570544,13.0013636 L5.7187884,13.0013636 Z" id="Fill-10" fill="#0E7851" sketch:type="MSShapeGroup"></path>
                        <path id="Fill-12" fill="#ED1B2D" sketch:type="MSShapeGroup" d="M6.8029998,11.4783715 C6.8029998,11.4043004 6.8624208,11.3433213 6.9371538,11.3433213 L7.2604458,11.3433213 C7.3343958,11.3433213 7.3943388,11.4043004 7.3943388,11.4783715 C7.3943388,11.5514762 7.3362228,11.608677 7.2604458,11.608677 L6.9371538,11.608677 C6.8612898,11.608677 6.8029998,11.5514762 6.8029998,11.4783715"></path>
                        <path id="Fill-14" fill="#ED1B2D" sketch:type="MSShapeGroup" d="M5.5350444,10.3049548 C5.5350444,10.2297414 5.5949004,10.1699925 5.6675454,10.1699925 L5.9902284,10.1699925 C6.0634824,10.1699925 6.1235124,10.2297414 6.1235124,10.3049548 C6.1235124,10.3788502 6.0650484,10.436754 5.9902284,10.436754 L5.6675454,10.436754 C5.5931604,10.436754 5.5350444,10.3788502 5.5350444,10.3049548"></path>
                        <path id="Fill-16" fill="#ED1B2D" sketch:type="MSShapeGroup" d="M7.6579749,10.8824636 C7.6579749,10.7777272 7.7434959,10.6943423 7.8488529,10.6943423 L8.3724189,10.6943423 C8.4765579,10.6943423 8.5632969,10.7777272 8.5632969,10.8824636 C8.5632969,10.9940536 8.4765579,11.0798109 8.3724189,11.0798109 L7.8488529,11.0798109 C7.7434959,11.0798109 7.6579749,10.9940536 7.6579749,10.8824636"></path>
                        <path d="M9.321528,11.1804088 L8.737584,11.1804088 C8.578896,11.1804088 8.447439,11.3107142 8.447439,11.4710699 C8.447439,11.6295803 8.578896,11.7603251 8.737584,11.7603251 L9.151617,11.7603251 L9.321528,11.1804088 Z" id="Fill-18" fill="#ED1B2D" sketch:type="MSShapeGroup"></path>
                        <path id="Fill-20" fill="#ED1B2D" sketch:type="MSShapeGroup" d="M7.1477025,10.3049548 C7.1477025,10.2297414 7.2071235,10.1699925 7.2812475,10.1699925 L7.6044525,10.1699925 C7.6796205,10.1699925 7.7387805,10.2297414 7.7387805,10.3049548 C7.7387805,10.3788502 7.6806645,10.436754 7.6044525,10.436754 L7.2812475,10.436754 C7.2060795,10.436754 7.1477025,10.3788502 7.1477025,10.3049548"></path>
                        <path id="Fill-22" fill="#ED1B2D" sketch:type="MSShapeGroup" d="M5.8806693,9.12728536 C5.8806693,9.05259916 5.9397423,8.99205941 6.0129963,8.99205941 L6.3373323,8.99205941 C6.4101513,8.99205941 6.4697463,9.05259916 6.4697463,9.12728536 C6.4697463,9.20311381 6.4113693,9.26374142 6.3373323,9.26374142 L6.0129963,9.26374142 C5.9390463,9.26374142 5.8806693,9.20311381 5.8806693,9.12728536"></path>
                        <path id="Fill-24" fill="#ED1B2D" sketch:type="MSShapeGroup" d="M7.9971357,9.70453933 C7.9971357,9.80901213 8.0849187,9.89810837 8.1887097,9.89810837 L8.7127977,9.89810837 C8.8186767,9.89810837 8.9031537,9.80901213 8.9031537,9.70453933 C8.9031537,9.59558536 8.8186767,9.51123389 8.7127977,9.51123389 L8.1887097,9.51123389 C8.0849187,9.51123389 7.9971357,9.59558536 7.9971357,9.70453933"></path>
                        <path d="M9.0965025,10.5970569 L9.4921785,10.5970569 L9.6658305,9.99833724 L9.0965025,9.99833724 C8.9365965,9.99833724 8.8079235,10.1350569 8.8079235,10.2996301 C8.8079235,10.461128 8.9365965,10.5970569 9.0965025,10.5970569" id="Fill-26" fill="#ED1B2D" sketch:type="MSShapeGroup"></path>
                        <path id="Fill-28" fill="#ED1B2D" sketch:type="MSShapeGroup" d="M7.4931969,9.12728536 C7.4931969,9.05259916 7.5523569,8.99205941 7.6263069,8.99205941 L7.9506429,8.99205941 C8.0243319,8.99205941 8.0845359,9.05259916 8.0845359,9.12728536 C8.0845359,9.20311381 8.0257239,9.26374142 7.9506429,9.26374142 L7.6263069,9.26374142 C7.5513129,9.26374142 7.4931969,9.20311381 7.4931969,9.12728536"></path>
                        <path d="M9.9737496,8.83426946 L9.4297386,8.83426946 C9.2694846,8.83426946 9.1411596,8.96580502 9.1411596,9.12730293 C9.1411596,9.28880084 9.2694846,9.41655816 9.4297386,9.41655816 L9.8366376,9.41655816 L10.0062006,8.83426946 L9.9737496,8.83426946 Z" id="Fill-30" fill="#ED1B2D" sketch:type="MSShapeGroup"></path>
                        <path id="Fill-32" fill="#ED1B2D" sketch:type="MSShapeGroup" d="M5.1903417,11.4783715 C5.1903417,11.4043004 5.2491537,11.3433213 5.3220597,11.3433213 L5.6469177,11.3433213 C5.7199977,11.3433213 5.7794187,11.4043004 5.7794187,11.4783715 C5.7794187,11.5514762 5.7210417,11.608677 5.6469177,11.608677 L5.3220597,11.608677 C5.2473267,11.608677 5.1903417,11.5514762 5.1903417,11.4783715"></path>
                        <path id="Fill-34" fill="#ED1B2D" sketch:type="MSShapeGroup" d="M6.5053554,9.70720167 C6.5053554,9.63400921 6.5652114,9.57355732 6.6384654,9.57355732 L6.9633234,9.57355732 C7.0364034,9.57355732 7.0959984,9.63400921 7.0959984,9.70720167 C7.0959984,9.78083347 7.0372734,9.84119749 6.9633234,9.84119749 L6.6384654,9.84119749 C6.5634714,9.84119749 6.5053554,9.78083347 6.5053554,9.70720167"></path>
                        <path id="Fill-36" fill="#ED1B2D" sketch:type="MSShapeGroup" d="M6.1547193,10.8795552 C6.1547193,10.8077686 6.2153583,10.7465259 6.2888733,10.7465259 L6.6125133,10.7465259 C6.6849843,10.7465259 6.7448403,10.8077686 6.7448403,10.8795552 C6.7448403,10.9583711 6.6864633,11.0166264 6.6125133,11.0166264 L6.2888733,11.0166264 C6.2145753,11.0166264 6.1547193,10.9583711 6.1547193,10.8795552"></path>
                        <path d="M14.2307031,9.31473013 L13.8678261,9.31473013 C13.7803911,9.31473013 13.7081811,9.23925314 13.7081811,9.14910251 C13.7081811,9.06044561 13.7803911,8.99050418 13.8678261,8.99050418 L14.2307031,8.99050418 C14.3180511,8.99050418 14.3888691,9.06044561 14.3888691,9.14910251 C14.3888691,9.23925314 14.3180511,9.31473013 14.2307031,9.31473013 L14.2307031,9.31473013 Z M13.8903591,10.4592741 L13.5286131,10.4592741 C13.4404821,10.4592741 13.3667931,10.3901234 13.3667931,10.2996213 C13.3667931,10.2117552 13.4404821,10.1350481 13.5286131,10.1350481 L13.8903591,10.1350481 C13.9774461,10.1350481 14.0489601,10.2117552 14.0489601,10.2996213 C14.0489601,10.3901234 13.9774461,10.4592741 13.8903591,10.4592741 L13.8903591,10.4592741 Z M13.5490581,11.6087385 L13.1860071,11.6087385 C13.0990071,11.6087385 13.0268841,11.534931 13.0268841,11.4493494 C13.0268841,11.3621862 13.0990071,11.290751 13.1860071,11.290751 L13.5490581,11.290751 C13.6371021,11.290751 13.7081811,11.3621862 13.7081811,11.4493494 C13.7081811,11.534931 13.6371021,11.6087385 13.5490581,11.6087385 L13.5490581,11.6087385 Z M12.8107761,11.046659 L12.4474641,11.046659 C12.3596811,11.046659 12.2875581,10.9775084 12.2875581,10.8824372 C12.2875581,10.7942197 12.3596811,10.724454 12.4474641,10.724454 L12.8107761,10.724454 C12.8978631,10.724454 12.9689421,10.7942197 12.9689421,10.8824372 C12.9689421,10.9775084 12.8978631,11.046659 12.8107761,11.046659 L12.8107761,11.046659 Z M12.0707541,10.4592741 L11.7070071,10.4592741 C11.6196591,10.4592741 11.5473621,10.3901234 11.5473621,10.2996213 C11.5473621,10.2117552 11.6196591,10.1350481 11.7070071,10.1350481 L12.0707541,10.1350481 C12.1581021,10.1350481 12.2283981,10.2117552 12.2283981,10.2996213 C12.2283981,10.3901234 12.1581021,10.4592741 12.0707541,10.4592741 L12.0707541,10.4592741 Z M11.7286701,11.6087385 L11.3674461,11.6087385 C11.2793151,11.6087385 11.2064091,11.534931 11.2064091,11.4493494 C11.2064091,11.3621862 11.2793151,11.290751 11.3674461,11.290751 L11.7286701,11.290751 C11.8167141,11.290751 11.8873581,11.3621862 11.8873581,11.4493494 C11.8873581,11.534931 11.8167141,11.6087385 11.7286701,11.6087385 L11.7286701,11.6087385 Z M10.4900511,11.1035084 C10.3696431,11.1035084 10.2724641,11.0076464 10.2724641,10.8824372 C10.2724641,10.7634665 10.3696431,10.6665502 10.4900511,10.6665502 L11.0840871,10.6665502 C11.2033641,10.6665502 11.3026311,10.7634665 11.3026311,10.8824372 C11.3026311,11.0076464 11.2033641,11.1035084 11.0840871,11.1035084 L10.4900511,11.1035084 Z M10.8337011,9.48791423 L11.4269541,9.48791423 C11.5463181,9.48791423 11.6452371,9.58553347 11.6452371,9.70617364 C11.6452371,9.82532008 11.5463181,9.92636611 11.4269541,9.92636611 L10.8337011,9.92636611 C10.7132931,9.92636611 10.6156791,9.82532008 10.6156791,9.70617364 C10.6156791,9.58553347 10.7132931,9.48791423 10.8337011,9.48791423 L10.8337011,9.48791423 Z M12.0480471,8.99050418 L12.4105761,8.99050418 C12.4979241,8.99050418 12.5693511,9.06044561 12.5693511,9.14910251 C12.5693511,9.23925314 12.4979241,9.31473013 12.4105761,9.31473013 L12.0480471,9.31473013 C11.9598291,9.31473013 11.8873581,9.23925314 11.8873581,9.14910251 C11.8873581,9.06044561 11.9598291,8.99050418 12.0480471,8.99050418 L12.0480471,8.99050418 Z M12.7903311,9.54766318 L13.1529471,9.54766318 C13.2399471,9.54766318 13.3107651,9.61707741 13.3107651,9.70617364 C13.3107651,9.79439121 13.2399471,9.86758368 13.1529471,9.86758368 L12.7903311,9.86758368 C12.7021131,9.86758368 12.6299901,9.79439121 12.6299901,9.70617364 C12.6299901,9.61707741 12.7021131,9.54766318 12.7903311,9.54766318 L12.7903311,9.54766318 Z M18.5523411,10.3788766 C18.5523411,9.85080126 18.5014461,9.33801464 18.4051371,8.83427824 L10.4878761,8.83427824 C10.6181151,8.87003975 10.7128581,8.98830753 10.7128581,9.12731172 C10.7128581,9.29039121 10.5844461,9.41656695 10.4223651,9.41656695 L9.8362461,9.41656695 L9.6647691,9.99832845 L10.0884591,9.99832845 C10.2494961,9.99832845 10.3773861,10.1290732 10.3773861,10.3003243 C10.3773861,10.4623494 10.2494961,10.5952029 10.0884591,10.5952029 L9.4933791,10.5952029 L9.3215541,11.1803912 L9.7254081,11.1803912 C9.8879241,11.1803912 10.0163361,11.3077092 10.0163361,11.4710523 C10.0163361,11.6139226 9.9106311,11.7333326 9.7704741,11.7623285 L18.4330641,11.7623285 C18.5111031,11.3134205 18.5523411,10.8479937 18.5523411,10.3788766 L18.5523411,10.3788766 Z" id="Fill-38" fill="#ED1B2D" sketch:type="MSShapeGroup"></path>
                    </g>
                </g>
            </g>
        </g>
    </g>
</svg>